<?xml version="1.0" encoding="UTF-8"?>
<svg width="50mm" height="50mm" version="1.1" viewBox="0 0 50 50" xmlns="http://www.w3.org/2000/svg" xmlns:xlink="http://www.w3.org/1999/xlink">
<defs>
<linearGradient id="a" x1="44.93" x2="-1.3126" y1="5.5532" y2="51.19" gradientUnits="userSpaceOnUse">
<stop stop-color="#0c0" offset="0"/>
<stop stop-color="#fc0" offset="1"/>
</linearGradient>
</defs>
<ellipse cx="25.059" cy="25.059" rx="24.774" ry="24.917" fill="#808080" stroke-width=".23702"/>
<ellipse cx="25.03" cy="25.059" rx="22.794" ry="22.907" fill="url(#a)" stroke-width=".25938"/>
<path d="m9.2861 16.546c0.96094-0.41562 2.0013-0.48774 3.0319-0.49058 0.96612 0.11728 1.9089 0.47155 2.7108 1.0304 0.88386 0.66751 1.723 1.4032 2.475 2.2206 0.93335 1.1252 1.8913 2.2292 2.8624 3.3209 0.2729 0.3068 0.56292 0.5982 0.82477 0.91477 0.30911 0.37371 0.59119 0.76965 0.88679 1.1545 1.2 1.719 2.5054 3.3607 3.6857 5.0942 0.5156 0.75727 1.0101 1.5292 1.5224 2.2888 0.84846 1.2245 1.7358 2.418 2.6634 3.5814 0.5245 0.65789 1.0874 1.366 1.6611 1.9824 0.27197 0.29222 0.56366 0.56483 0.84549 0.84724 0.69087 0.62345 1.3945 1.2438 2.19 1.7285 0.60288 0.36728 1.2562 0.65254 1.8985 0.93803 0.62783 0.27351 1.2756 0.48902 1.9283 0.69047 0.94142 0.0762 1.3659-5.3326 0.42444-5.4088-0.59658-0.19939-1.1898-0.40872-1.7619-0.67434-0.4591-0.22022-0.70432-0.32422-1.1321-0.57747-0.91049-0.53908-1.6979-1.26-2.4472-2.006-0.25503-0.27647-0.51722-0.5463-0.76509-0.8294-1.5195-1.7355-2.854-3.6312-4.1705-5.526-1.6971-2.5251-3.47-4.9945-5.316-7.41-1.5236-1.8506-3.1229-3.6381-4.7202-5.423-0.87937-0.83292-1.7829-1.6559-2.8217-2.2813-1.0803-0.56585-2.221-1.0123-3.4485-1.0818-1.2109 0.0039-2.4275 0.09217-3.5752 0.51914-0.93943 0.09828-0.39203 5.4957 0.54741 5.3974z" fill="#808080" stroke-width=".29927"/>
<path d="m9.3643 34.851c0.13864-0.10572 0.26962-0.22231 0.41591-0.31716 0.21748-0.141 1.8373-1.0569 1.8648-1.0731 0.4424-0.26014 0.88326-0.52308 1.318-0.79583 0.66348-0.41626 2.9594-1.9252 3.513-2.2878 2.3743-1.474 4.7031-3.0242 7.0923-4.4744 0.9124-0.55382 1.8413-1.08 2.7611-1.6214 3.3086-1.9477 2.0513-1.1975 5.201-3.1175 2.6941-1.6676 5.3317-3.424 7.8367-5.3651 0.59535-0.45138 1.1714-0.92579 1.6999-1.4541 0.09889-0.13136 0.22995-0.22483 0.33399-0.35111 0.82607-0.16018-0.08003-4.8332-0.9061-4.673-0.15514 0.11524-0.26223 0.25491-0.42017 0.36865-0.46987 0.51556-0.95335 1.019-1.5286 1.4209-2.4417 1.952-5.0426 3.6862-7.6925 5.3421-2.7368 1.678-2.3085 1.4336-5.1764 3.114-0.93164 0.54589-1.8766 1.0692-2.8011 1.6271-2.3989 1.4476-4.7255 3.0154-7.1153 4.4778-1.5784 1.0346-3.1379 2.1042-4.7582 3.0731-2.4285 1.4523 0.07798-0.06351-1.964 1.0877-0.18469 0.10412-0.35912 0.22545-0.53869 0.33817-0.82747 0.15279 0.036823 4.8337 0.86429 4.6809z" fill="#808080" stroke-width=".26458"/>
<path d="m31.237 28.982c0.97424-0.61428 1.8592-1.3418 2.7812-2.022 1.9764-1.4766 4.0718-2.7983 6.1608-4.1257 1.3676-0.90057 2.7575-1.7815 4.0396-2.7908 0.39405-0.31852 0.7613-0.66447 1.0725-1.0558 0.0293-0.04902 0.05863-0.09801 0.08795-0.14702 0.89822-0.30457-0.89848-5.0904-1.7967-4.7859-0.0576 0.05886-0.11521 0.11771-0.17281 0.17656-0.04859 0.08056-0.07528 0.17248-0.1299 0.24955-0.03757 0.053-0.09436 0.09194-0.13397 0.14361-0.15034 0.19602-0.23855 0.41744-0.47201 0.55427-0.42067 0.39046-0.87237 0.7141-1.3468 1.0459-0.8246 0.5767-1.6521 1.1502-2.5019 1.6936-2.1148 1.3405-4.2453 2.6627-6.2508 4.149-0.35766 0.25813-0.89916 0.64429-1.2498 0.91544-0.47893 0.37038-0.93286 0.77318-1.458 1.0874-0.9214 0.2336 0.44914 5.1455 1.3705 4.9119z" fill="#808080" stroke-width=".29103"/>
<path d="m10.657 41.41c0.54858-0.69068 1.2633-1.2161 1.9687-1.7358 1.2538-0.94429 2.5375-1.8458 3.882-2.6577 1.0606-0.66224 2.1251-1.3153 3.2086-1.9399 0.76843-0.4513 1.5448-0.88864 2.3183-1.3312 0.55613-0.31202 1.0475-0.721 1.5891-1.0542 0.20729-0.15884 0.10827-0.08001 0.29757-0.23582 0.85002-0.14088 0.04886-4.924-0.80116-4.7831-0.2346 0.15592-0.12509 0.0748-0.33003 0.24132-0.20059 0.22074-0.03105 0.06089-0.36363 0.26782-0.37543 0.23359-0.70054 0.53954-1.0828 0.76392-0.74136 0.47809-1.5444 0.85777-2.2919 1.3275-1.0854 0.62776-2.1758 1.2449-3.2193 1.9413-1.3966 0.80243-2.7278 1.7052-4.011 2.6774-0.47085 0.34676-0.96474 0.67-1.4214 1.0352-0.27222 0.2177-0.34737 0.31542-0.59212 0.5444-0.076808 0.07186-0.1564 0.14071-0.2346 0.21107-0.84018 0.19055 0.24343 4.9183 1.0836 4.7277z" fill="#808080" stroke-width=".27025"/>
</svg>
