<?xml version="1.0" encoding="UTF-8"?>
<svg width="50mm" height="50mm" version="1.1" viewBox="0 0 50 50" xmlns="http://www.w3.org/2000/svg" xmlns:xlink="http://www.w3.org/1999/xlink">
<defs>
<linearGradient id="a" x1="24.636" x2="47.05" y1="21.405" y2="48.06" gradientUnits="userSpaceOnUse">
<stop stop-color="#ff0" offset="0"/>
<stop stop-color="#f60" offset="1"/>
</linearGradient>
</defs>
<ellipse cx="25.059" cy="25.059" rx="24.774" ry="24.917" stroke-width=".23702"/>
<ellipse cx="24.958" cy="24.988" rx="21.152" ry="21.408" fill="url(#a)" stroke-width=".24155"/>
<path d="m11.407 18.117c0.82089-0.3558 1.7097-0.41754 2.59-0.41998 0.82531 0.1004 1.6307 0.40369 2.3157 0.88208 0.75504 0.57144 1.4719 1.2013 2.1143 1.901 0.79732 0.9633 1.6156 1.9083 2.4452 2.8429 0.23312 0.26264 0.48088 0.51211 0.70457 0.78312 0.26406 0.31993 0.50503 0.65888 0.75754 0.98832 1.0251 1.4716 2.1403 2.877 3.1485 4.361 0.44046 0.64828 0.86286 1.3091 1.3005 1.9594 0.7248 1.0482 1.4828 2.07 2.2752 3.066 0.44806 0.56321 0.92891 1.1694 1.419 1.6971 0.23233 0.25016 0.48151 0.48354 0.72226 0.72531 0.59018 0.53372 1.1912 1.0648 1.8708 1.4797 0.51501 0.31442 1.0731 0.55862 1.6218 0.80303 0.53633 0.23415 1.0897 0.41864 1.6473 0.5911 0.80422 0.06523 1.1668-4.5651 0.36258-4.6304-0.50964-0.17069-1.0164-0.3499-1.5051-0.57729-0.39218-0.18852-0.60167-0.27756-0.96707-0.49436-0.7778-0.46149-1.4504-1.0786-2.0905-1.7173-0.21786-0.23668-0.44184-0.46768-0.65358-0.71003-1.2981-1.4858-2.438-3.1086-3.5627-4.7307-1.4498-2.1617-2.9643-4.2757-4.5412-6.3436-1.3015-1.5843-2.6678-3.1145-4.0322-4.6425-0.75121-0.71304-1.5231-1.4176-2.4104-1.953-0.92288-0.48441-1.8973-0.86661-2.9459-0.92609-1.0344 0.0033-2.0737 0.07891-3.0542 0.44443-0.80252 0.08414-0.33489 4.7048 0.46763 4.6206z" stroke-width=".25592"/>
<path d="m9.5247 34.397c0.12118-0.09731 0.23566-0.20461 0.36352-0.2919 0.19009-0.12977 1.6058-0.97275 1.6299-0.98764 0.38667-0.23942 0.77201-0.48143 1.152-0.73246 0.5799-0.38311 2.5867-1.7719 3.0705-2.1056 2.0753-1.3567 4.1107-2.7833 6.199-4.1181 0.79747-0.50971 1.6094-0.99397 2.4133-1.4923 2.8918-1.7926 1.7929-1.1021 4.5459-2.8692 2.3548-1.5348 4.6601-3.1513 6.8496-4.9378 0.52036-0.41544 1.0239-0.85207 1.4858-1.3383 0.08643-0.1209 0.20099-0.20693 0.29192-0.32315 0.72202-0.14742-0.06995-4.4483-0.79196-4.3009-0.1356 0.10606-0.2292 0.23461-0.36725 0.33929-0.41069 0.47451-0.83326 0.93782-1.3361 1.3077-2.1342 1.7966-4.4075 3.3926-6.7235 4.9167-2.3921 1.5444-2.0178 1.3195-4.5244 2.866-0.81429 0.50242-1.6402 0.9841-2.4482 1.4976-2.0968 1.3324-4.1302 2.7753-6.2191 4.1212-1.3796 0.95226-2.7427 1.9366-4.1588 2.8284-2.1226 1.3367 0.06815-0.05844-1.7166 1.001-0.16142 0.09583-0.31389 0.2075-0.47083 0.31124-0.72324 0.14062 0.032185 4.4488 0.75543 4.3081z" stroke-width=".23731"/>
<path d="m30.1 27.447c0.8015-0.51031 1.5299-1.1056 2.2886-1.6654 1.6264-1.2143 3.3503-2.3123 5.069-3.4145 1.1252-0.74609 2.2687-1.4776 3.3238-2.3054 0.32432-0.26086 0.62668-0.54214 0.88308-0.85682 0.02416-0.0391 0.04835-0.07815 0.07253-0.11725 0.73844-0.267-0.72796-3.9266-1.4664-3.6596-0.04742 0.0477-0.09488 0.09537-0.1423 0.14306-0.04005 0.06424-0.06218 0.13661-0.10721 0.19835-0.03095 0.04245-0.07769 0.07465-0.11033 0.11614-0.12388 0.15743-0.19678 0.33252-0.38882 0.44674-0.34633 0.31769-0.71802 0.58447-1.1084 0.85838-0.67851 0.47606-1.3594 0.94968-2.0585 1.4007-1.7398 1.1132-3.4926 2.2128-5.1429 3.4356-0.29431 0.2127-0.73989 0.53111-1.0284 0.75369-0.39415 0.30403-0.76782 0.63242-1.1998 0.89438-0.75734 0.21261 0.35875 3.9846 1.1161 3.772z" stroke-width=".23254"/>
<path d="m12.904 39.074c0.42764-0.57716 0.9994-1.0287 1.5636-1.4753 1.0021-0.81024 2.0307-1.5874 3.1131-2.2952 0.85302-0.57585 1.7096-1.1445 2.5831-1.6911 0.61914-0.39434 1.2454-0.77781 1.8691-1.1653 0.44866-0.27368 0.8399-0.62243 1.2757-0.91252 0.16557-0.13614 0.08659-0.06873 0.23738-0.20169 0.69886-0.14872-0.15149-3.9526-0.85034-3.8039-0.18831 0.13494-0.10074 0.06526-0.26406 0.20746-0.15761 0.18552-0.02335 0.05016-0.29088 0.23014-0.30198 0.20317-0.55945 0.46229-0.86743 0.65835-0.59566 0.4147-1.2463 0.75303-1.8473 1.1613-0.87495 0.54922-1.7544 1.0901-2.5919 1.6927-1.126 0.70242-2.1938 1.4826-3.2192 2.3164-0.37664 0.29797-0.77328 0.57804-1.1374 0.89021-0.21708 0.18609-0.27554 0.26764-0.46942 0.46163-0.06085 0.06087-0.12411 0.11946-0.18617 0.17919-0.68876 0.18815 0.39347 3.9357 1.0822 3.7476z" stroke-width=".22062"/>
</svg>
