<?xml version="1.0" encoding="UTF-8" standalone="no"?>
<!-- Created with Inkscape (http://www.inkscape.org/) -->

<svg
   width="50mm"
   height="50mm"
   viewBox="0 0 50 50"
   version="1.1"
   id="svg5"
   sodipodi:docname="Xiotas App Icon.svg"
   inkscape:version="1.1.1 (3bf5ae0d25, 2021-09-20)"
   xmlns:inkscape="http://www.inkscape.org/namespaces/inkscape"
   xmlns:sodipodi="http://sodipodi.sourceforge.net/DTD/sodipodi-0.dtd"
   xmlns:xlink="http://www.w3.org/1999/xlink"
   xmlns="http://www.w3.org/2000/svg"
   xmlns:svg="http://www.w3.org/2000/svg">
  <sodipodi:namedview
     id="namedview7"
     pagecolor="#ffffff"
     bordercolor="#666666"
     borderopacity="1.0"
     inkscape:pageshadow="2"
     inkscape:pageopacity="0.0"
     inkscape:pagecheckerboard="0"
     inkscape:document-units="mm"
     showgrid="false"
     width="50mm"
     inkscape:zoom="0.65512531"
     inkscape:cx="-56.477745"
     inkscape:cy="57.240958"
     inkscape:window-width="1366"
     inkscape:window-height="705"
     inkscape:window-x="1358"
     inkscape:window-y="-8"
     inkscape:window-maximized="1"
     inkscape:current-layer="layer1" />
  <defs
     id="defs2">
    <linearGradient
       inkscape:collect="always"
       id="linearGradient5496">
      <stop
         style="stop-color:#00cc00;stop-opacity:1"
         offset="0"
         id="stop5492" />
      <stop
         style="stop-color:#ffcc00;stop-opacity:1"
         offset="1"
         id="stop5494" />
    </linearGradient>
    <linearGradient
       inkscape:collect="always"
       xlink:href="#linearGradient5496"
       id="linearGradient5498"
       x1="44.930176"
       y1="5.5531678"
       x2="-1.3125669"
       y2="51.190109"
       gradientUnits="userSpaceOnUse"
       gradientTransform="matrix(0.92796115,0,0,0.93455047,1.731724,1.5687302)" />
  </defs>
  <g
     inkscape:label="Layer 1"
     inkscape:groupmode="layer"
     id="layer1">
    <ellipse
       style="fill:#808080;stroke-width:0.237016"
       id="path846"
       cx="25.059376"
       cy="25.059374"
       rx="24.773798"
       ry="24.916586" />
    <ellipse
       style="fill:url(#linearGradient5498);fill-opacity:1;stroke-width:0.241549"
       id="path1062"
       cx="24.958406"
       cy="24.987978"
       rx="21.152122"
       ry="21.408123" />
    <path
       style="fill:#808080;stroke-width:0.255925"
       id="path4638"
       d="m 11.406999,18.117372 c 0.820891,-0.355805 1.709663,-0.417542 2.590034,-0.41998 0.825314,0.100403 1.63071,0.403689 2.3157,0.882085 0.755041,0.571438 1.471893,1.201272 2.114282,1.901046 0.797322,0.963297 1.615634,1.908339 2.445206,2.842942 0.233123,0.262641 0.48088,0.512106 0.704567,0.783117 0.264062,0.319926 0.50503,0.658884 0.757542,0.988325 1.025121,1.47161 2.140276,2.877029 3.148531,4.361023 0.440458,0.648284 0.862856,1.309118 1.300477,1.959385 0.7248,1.048247 1.482818,2.069962 2.275199,3.065992 0.448059,0.563207 0.928907,1.169397 1.419011,1.697105 0.232331,0.250162 0.48151,0.483541 0.722264,0.72531 0.590178,0.533723 1.19122,1.064785 1.87085,1.479717 0.515011,0.314425 1.073124,0.558622 1.621813,0.80303 0.536326,0.234151 1.08972,0.418636 1.647277,0.591099 0.804215,0.06523 1.166786,-4.565148 0.362575,-4.630382 v 0 c -0.509635,-0.17069 -1.016435,-0.349899 -1.505129,-0.577287 -0.392184,-0.188523 -0.601674,-0.277562 -0.967071,-0.494363 -0.777796,-0.461491 -1.450437,-1.078629 -2.090516,-1.717324 -0.217864,-0.236679 -0.441841,-0.467675 -0.653585,-0.710033 -1.298075,-1.48576 -2.438023,-3.108582 -3.562698,-4.730678 -1.449794,-2.161669 -2.964307,-4.275682 -4.541223,-6.343585 -1.301518,-1.584279 -2.667782,-3.114474 -4.03223,-4.642498 -0.751207,-0.713042 -1.523086,-1.417555 -2.410429,-1.953001 -0.922881,-0.484414 -1.897301,-0.86661 -2.945901,-0.92609 -1.034378,0.0033 -2.073674,0.07891 -3.054172,0.444431 -0.802518,0.08414 -0.334892,4.704755 0.467626,4.620614 z" />
    <path
       style="fill:#808080;stroke-width:0.237307"
       id="path4653"
       d="m 9.5247478,34.397065 c 0.1211757,-0.09731 0.23566,-0.204611 0.3635248,-0.291903 0.1900864,-0.129772 1.6058484,-0.972746 1.6298944,-0.987635 0.386673,-0.239422 0.772008,-0.481428 1.151981,-0.732457 0.579904,-0.383111 2.586655,-1.771892 3.070512,-2.105591 2.075262,-1.356661 4.110726,-2.783349 6.198961,-4.11806 0.797474,-0.509712 1.609374,-0.99397 2.413304,-1.492316 2.891824,-1.792595 1.792912,-1.102112 4.545907,-2.869243 2.354761,-1.534819 4.660106,-3.151328 6.84957,-4.937846 0.520359,-0.415435 1.023853,-0.852072 1.485775,-1.338329 0.08643,-0.120897 0.200986,-0.206926 0.291922,-0.323151 0.72202,-0.147421 -0.06995,-4.448274 -0.791965,-4.300852 v 0 c -0.135599,0.106059 -0.229205,0.234608 -0.367251,0.339292 -0.410687,0.474507 -0.833265,0.937817 -1.336071,1.307736 -2.134183,1.796563 -4.407454,3.392609 -6.723535,4.916703 -2.392088,1.544406 -2.017756,1.319476 -4.524358,2.866044 -0.814291,0.502417 -1.640191,0.984097 -2.448243,1.497564 -2.096752,1.332358 -4.130242,2.775254 -6.219082,4.121227 -1.37957,0.952255 -2.742658,1.936594 -4.158838,2.82839 -2.1226495,1.336674 0.06815,-0.05844 -1.7166019,1.001048 -0.1614224,0.09583 -0.3138895,0.207497 -0.4708345,0.311243 -0.7232447,0.14062 0.032185,4.448753 0.7554282,4.308136 z" />
    <path
       style="fill:#808080;stroke-width:0.232541"
       id="path4657"
       d="m 30.100474,27.446807 c 0.8015,-0.510307 1.529892,-1.105632 2.288624,-1.665421 1.626421,-1.21433 3.350297,-2.312348 5.068956,-3.414482 1.125152,-0.746091 2.268698,-1.477648 3.323829,-2.305432 0.324325,-0.260861 0.626681,-0.542145 0.883076,-0.856823 0.02416,-0.0391 0.04835,-0.07815 0.07253,-0.117249 0.738437,-0.267003 -0.727964,-3.926643 -1.466399,-3.659638 v 0 c -0.04742,0.0477 -0.09488,0.09537 -0.142304,0.143062 -0.04005,0.06424 -0.06218,0.136606 -0.107209,0.198354 -0.03095,0.04245 -0.07769,0.07465 -0.11033,0.116142 -0.123883,0.157429 -0.196785,0.332519 -0.388824,0.446745 -0.346331,0.317687 -0.718015,0.584469 -1.108411,0.858378 -0.678508,0.476058 -1.359381,0.949684 -2.058486,1.400709 -1.739802,1.113193 -3.492588,2.212792 -5.142888,3.43562 -0.294309,0.212698 -0.739889,0.531108 -1.028441,0.75369 -0.394148,0.304034 -0.76782,0.632425 -1.199818,0.894378 -0.75734,0.212614 0.358754,3.984575 1.116093,3.771966 z" />
    <path
       style="fill:#808080;stroke-width:0.220617"
       id="path4772"
       d="m 12.904337,39.074438 c 0.427641,-0.577164 0.999395,-1.028732 1.5636,-1.475263 1.002096,-0.810241 2.030655,-1.58738 3.113057,-2.29521 0.85302,-0.575847 1.709631,-1.144464 2.583112,-1.691065 0.619144,-0.39434 1.245421,-0.777808 1.869075,-1.165323 0.448656,-0.273685 0.839895,-0.622433 1.275698,-0.912518 0.16557,-0.136137 0.08659,-0.06873 0.237378,-0.201693 0.698858,-0.148716 -0.151487,-3.952578 -0.850344,-3.80386 v 0 c -0.188313,0.134943 -0.100736,0.06526 -0.264057,0.207462 -0.157608,0.185525 -0.02335,0.05016 -0.290875,0.230135 -0.301984,0.203169 -0.559449,0.462288 -0.867431,0.658353 -0.595665,0.414695 -1.246305,0.753027 -1.847349,1.161262 -0.874948,0.549222 -1.754418,1.090121 -2.591878,1.692688 -1.125987,0.702421 -2.193844,1.48263 -3.219192,2.316432 -0.376638,0.297973 -0.77328,0.578044 -1.137435,0.890209 -0.217076,0.186087 -0.27554,0.267641 -0.469421,0.461634 -0.06085,0.06087 -0.124113,0.119462 -0.186168,0.179192 -0.688764,0.188149 0.393466,3.935715 1.08223,3.747565 z" />
  </g>
</svg>
